# xmcd CD database file
#
# Track frame offsets:
#	150
#	7436
#	10701
#	21589
#	41223
#	53934
#	68896
#	80253
#	87176
#	98263
#	114137
#	126107
#	142392
#	146228
#	162669
#	178771
#	186806
#	195857
#	208330
#	223416
#
# Disc length: 3208 seconds
#
# Revision: 20
# Processed by: cddbd v1.5.2PL0 Copyright (c) Steve Scherf et al.
# Submitted via: CDex 1.51
#
DISCID=2e0c8614
DTITLE=Various Artist - Chorales d'enfants  {Chants de Noël}  [CD 5-5]
DYEAR=1900
DGENRE=Chants de Noël
TTITLE0=Choeurs d'enfants du théâtre du Bolchoï - La complainte de Saint Georges
TTITLE1=Les petits chanteurs de Noël - Andiamo (orfey 25)  
TTITLE2=Choeurs d'enfants du théâtre du Bolchoï - Le ciel et la terre
TTITLE3=Chorale du tsar Pierre Le Grand - Sleeping princess
TTITLE4=Mainburger Kinderchor - Süsser die glocken nie klingen
TTITLE5=Juvie Rubio - Hindi Kita Malilimutan
TTITLE6=Chorale du tsar Pierre Le Grand - My garden
TTITLE7=Les petits chanteurs de Noël - L'air de la romance from ''Daphna''
TTITLE8=Chorale du tsar Pierre Le Grand - Cuckoo
TTITLE9=St-Petersburg Children's Choir - Notre mère
TTITLE10=St-Petersburg Children's Choir - Following song
TTITLE11=Chorale du tsar Pierre Le Grand - Comme le safran
TTITLE12=Les petits chanteurs de Noël - La romance de la fée
TTITLE13=Chorale du tsar Pierre Le Grand - Nightingale
TTITLE14=Chorale du tsar Pierre Le Grand - The waves of the Amur-river
TTITLE15=Maîtrise de la Cathédrale de Strasbourg - Am Weihnachtsbaum
TTITLE16=Chorale du tsar Pierre Le Grand - Le vent d'espoir
TTITLE17=Chorale du tsar Pierre Le Grand - Aux frontières des rêves
TTITLE18=Les petits chanteurs de Noël - Quoniam tu solus sanctus
TTITLE19=Les petits chanteurs de Noël - La revue de nuit
EXTD=
EXTT0=
EXTT1=
EXTT2=
EXTT3=
EXTT4=
EXTT5=
EXTT6=
EXTT7=
EXTT8=
EXTT9=
EXTT10=
EXTT11=
EXTT12=
EXTT13=
EXTT14=
EXTT15=
EXTT16=
EXTT17=
EXTT18=
EXTT19=
PLAYORDER=
